<svg xmlns="http://www.w3.org/2000/svg" viewBox="0 0 122.34 178.36"><path d="M76.39752,32.39583a20.0446,20.0446,0,0,0,3.208,2.21875c-.03125.09375-1.5,1.40625-1.90625,1.40625s1.4375,4.125,2.25,4.53125a4.24822,4.24822,0,0,1-2.125-.34375s.5625,3.58024,1.40625,4.1495l-1.34375-.43075S76.168,54.52083,72.418,56.86458s-11.24634-17.3125-11.24634-17.3125Z" style="fill: #fbdaa4"/>
<path d="M45.94585,32.39583a20.0446,20.0446,0,0,1-3.208,2.21875c.03125.09375,1.5,1.40625,1.90625,1.40625s-1.4375,4.125-2.25,4.53125a4.24822,4.24822,0,0,0,2.125-.34375s-.5625,3.58024-1.40625,4.1495l1.34375-.43075s1.71875,10.59375,5.46875,12.9375,11.24634-17.3125,11.24634-17.3125Z" style="fill: #fbdaa4"/>
<path d="M76.39752,32.39583a20.0446,20.0446,0,0,0,3.208,2.21875c-.03125.09375-1.5,1.40625-1.90625,1.40625s1.4375,4.125,2.25,4.53125a4.24822,4.24822,0,0,1-2.125-.34375s.5625,3.58024,1.40625,4.1495l-1.34375-.43075S76.168,54.52083,72.418,56.86458s-11.24634-17.3125-11.24634-17.3125Z" style="opacity: 0.2"/>
<path d="M45.94585,32.39583a20.0446,20.0446,0,0,1-3.208,2.21875c.03125.09375,1.5,1.40625,1.90625,1.40625s-1.4375,4.125-2.25,4.53125a4.24822,4.24822,0,0,0,2.125-.34375s-.5625,3.58024-1.40625,4.1495l1.34375-.43075s1.71875,10.59375,5.46875,12.9375,11.24634-17.3125,11.24634-17.3125Z" style="opacity: 0.1"/><path d="M83.5,78.05c-2.66-3.86-12-5.5-12-5.5s-1.65-4.72-1.16-8.06l-9,1s-.06.27-.15.76v-.76L54,64.07l-1.92.42c.5,3.34-1.16,8.06-1.16,8.06s-9.38,1.64-12,5.5S30.63,98.42,29.63,132c0,0,.42,5.88,5.24,5.88s6.32-3.24,6.32-5.88l3.9,41.52s-6.79-1.57-6.5,4.87H59.92l1.22-47s1.28,47,1.28,47H83.75c.3-6.44-6.49-4.87-6.49-4.87L81.16,132c0,2.64,1.49,5.88,6.31,5.88S92.71,132,92.71,132C91.71,98.42,86.17,81.92,83.5,78.05Z" style="fill: #f9e6cc"/>\r\n<path d="M83.5,78.05c-2.66-3.86-12-5.5-12-5.5s-1.65-4.72-1.16-8.06l-9,1s-.06.27-.15.76v-.76L54,64.07l-1.92.42c.5,3.34-1.16,8.06-1.16,8.06s-9.38,1.64-12,5.5S30.63,98.42,29.63,132c0,0,.42,5.88,5.24,5.88s6.32-3.24,6.32-5.88l3.9,41.52s-6.79-1.57-6.5,4.87H59.92l1.22-47.05,1.29,47.05H83.75c.3-6.44-6.49-4.87-6.49-4.87L81.16,132c0,2.64,1.49,5.88,6.31,5.88S92.71,132,92.71,132C91.71,98.42,86.17,81.92,83.5,78.05Z" style="fill: #804b3c;opacity: 0.1"/>\r\n<path d="M83.5,78.05c-2.66-3.87-12-5.5-12-5.5s-1.65-4.72-1.16-8.06l-9-2s-.06,3.27-.15,3.76V62.52L54,64.07l0,4.54L61.17,88l0,43.21s1.29,47.14,1.29,47.14H83.75c.3-6.43-6.49-4.86-6.49-4.86L81.16,132c0,2.64,1.49,5.88,6.31,5.88S92.71,132,92.71,132C91.71,98.42,86.17,81.91,83.5,78.05Z" style="fill: #804b3c;opacity: 0.1"/>\r\n<path d="M80.38,125.11H41.89l-.7,6.86c11.54,0,19.72,8.11,19.72,8.11h.45S69.61,132,81.15,132Z" style="fill: #d5d5d5"/>\r\n<path d="M80.38,125.11H61.13v15h.23S69.61,132,81.15,132Z" style="opacity: 0.1"/>\r\n<path d="M33.23052,178.35733c0-1.29483.04167-2.75316,1.77083-3.149s9.60417-2.59375,9.63542-3.60937-.53125-2.01562-.17187-2.01562,1.34375,1.28125,1.40625,1.92188.70313,2.44587,1.14063,2.46512,11.29688-.262,12.29688-.68387.98438-.25.96875-.17187.70313,4.479-.34375,5.23951Z" style="fill: #141414"/>
<path d="M39.45969,174.25521c-1.37969.702-2.87546,1.155-4.26408,1.72262a1.94539,1.94539,0,0,0-.81692.51061c-.02438.03343-.01344.05883-.01412.09027.00556.00813.01071.03493.07528.05615a1.72953,1.72953,0,0,0,.48734.05745,17.72871,17.72871,0,0,1,2.30333-.04647c-.76627.12733-1.48986.33492-2.281.4359a1.62121,1.62121,0,0,1-.65481-.02983.55411.55411,0,0,1-.35474-.29727.59137.59137,0,0,1,.00616-.46806,2.08561,2.08561,0,0,1,1.05352-.7673,17.92227,17.92227,0,0,1,2.21435-.71459C37.95748,174.60522,38.701,174.414,39.45969,174.25521Z" style="fill: #fff;opacity: 0.7000000000000001"/>
<path d="M89.00358,178.35733c0-1.29483-.04167-2.75316-1.77083-3.149s-9.60417-2.59375-9.63542-3.60937.53125-2.01562.17188-2.01562-1.34375,1.28125-1.40625,1.92188-.70312,2.44587-1.14062,2.46512-11.29687-.262-12.29687-.68387-.98437-.25-.96875-.17187-.70312,4.479.34375,5.23951Z" style="fill: #0a0a0a"/>
<path d="M82.77442,174.25521c1.37969.702,2.87546,1.155,4.26408,1.72262a1.94539,1.94539,0,0,1,.81692.51061c.02438.03343.01344.05883.01412.09027-.00556.00813-.01071.03493-.07528.05615a1.72953,1.72953,0,0,1-.48734.05745,17.72871,17.72871,0,0,0-2.30333-.04647c.76627.12733,1.48986.33492,2.281.4359a1.62121,1.62121,0,0,0,.65481-.02983.55411.55411,0,0,0,.35474-.29727.59137.59137,0,0,0-.00616-.46806,2.08561,2.08561,0,0,0-1.05352-.7673,17.92227,17.92227,0,0,0-2.21435-.71459C84.27663,174.60522,83.53311,174.414,82.77442,174.25521Z" style="fill: #fff;opacity: 0.7000000000000001"/>
<path d="M80.38,125.11H41.89l-.7,6.86,3,40.55s7.61,2.31,9.8,2.13,6.32-.4,6.32-.4l.84-34.17L62,174.25s4.13.21,6.32.4,9.8-2.12,9.8-2.12l3-40.55Z" style="fill: #333"/>
<g style="opacity: 0.2">
<path d="M49.46,126.38a7,7,0,0,1-.4,2.88,8.06,8.06,0,0,1-1.46,2.57,7.17,7.17,0,0,1-2.33,1.84,6.92,6.92,0,0,1-2.81.75,19.36,19.36,0,0,0,2.4-1.42,10,10,0,0,0,2-1.81A14.84,14.84,0,0,0,49.46,126.38Z"/>
</g>
<g style="opacity: 0.1">
<path d="M50.79,131.35q0,5.16,0,10.31L50.62,152l-.27,10.31q-.16,5.15-.4,10.3,0-5.16,0-10.31L50.12,152l.27-10.31Q50.55,136.5,50.79,131.35Z"/>
</g>
<g style="opacity: 0.2">
<path d="M72.81,126.38a14.84,14.84,0,0,0,2.63,4.8,10,10,0,0,0,2,1.81,19.36,19.36,0,0,0,2.4,1.42,6.92,6.92,0,0,1-2.81-.75,7.17,7.17,0,0,1-2.33-1.84,8.06,8.06,0,0,1-1.46-2.57A7,7,0,0,1,72.81,126.38Z"/>
</g>
<g style="opacity: 0.1">
<path d="M71.48,131.35q.24,5.15.4,10.3L72.15,152l.15,10.31q.06,5.15,0,10.31-.24-5.15-.4-10.3L71.65,152l-.15-10.31Q71.44,136.51,71.48,131.35Z"/>
</g>
<path d="M80.38,125.11H41.89l-.7,6.86,3,40.55s7.61,2.31,9.8,2.13,6.32-.4,6.32-.4l.84-34.17L62,174.25s4.13.21,6.32.4,9.8-2.12,9.8-2.12l3-40.55Z" style="opacity: 0.15"/>
<path d="M80.38,125.11H61.13v15L62,174.25s4.13.21,6.32.4,9.8-2.12,9.8-2.12l3-40.55Z" style="opacity: 0.1"/><path d="M61.17165,16.83334A15.92952,15.92952,0,0,0,45.28884,32.71616v7.21327S46.842,70.33505,61.17165,70.33505,77.067,39.92813,77.067,39.92813l-.01254-7.212A15.92948,15.92948,0,0,0,61.17165,16.83334Z" style="fill: #f9e6cc"/>
<path d="M77.0545,32.71616A15.92948,15.92948,0,0,0,61.17168,16.83334V70.33505c14.32965,0,15.89532-30.40692,15.89532-30.40692Z" style="fill: #804b3c;opacity: 0.1"/><path d="M67,40a2.4,2.4,0,0,1-2.36-2,2.33,2.33,0,0,0,0,.38,2.41,2.41,0,1,0,4.81,0,2.33,2.33,0,0,0,0-.38A2.4,2.4,0,0,1,67,40Z" style="fill: #787878"/>\r\n<path d="M55.57,40a2.41,2.41,0,0,1-2.37-2,2.33,2.33,0,0,0,0,.38,2.41,2.41,0,1,0,4.81,0,2.34,2.34,0,0,0,0-.38A2.41,2.41,0,0,1,55.57,40Z" style="fill: #787878"/>\r\n<path d="M61.13,40.73l-1.89,5.69a2,2,0,0,0,1.89,2.64h0A2,2,0,0,0,63,46.42Z" style="fill: #d5988c;opacity: 0.5"/>\r\n<path d="M61.13,40.73,63,46.42a2,2,0,0,1-1.9,2.64h0Z" style="opacity: 0.1"/>\r\n<path d="M61.29156,76.34512c.63531-.153,1.0235-.28235,1.0235-.28235s-3.03.54486-3.39465-.35266a4.04892,4.04892,0,0,0,.53931.87323,1.23882,1.23882,0,0,0-.523,1.11053C59.09612,77.22556,60.657,76.49783,61.29156,76.34512Z" style="opacity: 0.1"/>
<path d="M62.668,77.651l-.353-.47058.02942-.43433-.31177-.25977-.4588.63525.42352.57648-.31763.57648.54114.42352a1.41371,1.41371,0,0,1-.46356.46033,5.54245,5.54245,0,0,0,.869-.4917c.076-.05072.1167-.20911.13495-.4245-.08118-.02728-.151-.05121-.1756-.06177C62.50329,78.14511,62.668,77.651,62.668,77.651Z" style="opacity: 0.30000000000000004"/>
<path d="M60.04449,75.73331c.82336.29407,2.50555-.05872,2.54315.18439-.02612-.1792-.04462-.29272-.04462-.29272a2.54125,2.54125,0,0,0,1.20831-1.70831.45778.45778,0,0,0-.04681-.21606C63.94939,74.8616,60.04449,75.73331,60.04449,75.73331Z" style="opacity: 0.1"/>
<path d="M74.80456,91.54166c0-3.79169-1.07556-18.47931-1.07556-18.47931l-12.576.89465-12.576-.89465S47.50133,87.75,47.50133,91.54166c0,3.67853,12.86493,14.41467,13.63287,15.05225v.03107l.01874-.0155.01874.0155v-.03107C61.93963,105.95633,74.80456,95.22019,74.80456,91.54166Z" style="fill: #f0ede9"/>
<path d="M73.729,73.06235l-12.576.89465-12.576-.89465s-.08423,1.14966-.20538,2.88733a74.53758,74.53758,0,0,0,6.484,5.61078c.4375.02289,3.21875-4.47711,3.4375-4.53961s.125,2.375.28125,2.5625S55.168,90.80209,55.418,91.70834c.2085.75586,4.3468,9.37146,5.71619,12.21338v.07782l.01874-.03894.01874.03894v-.07782c1.36938-2.84192,5.50769-11.45752,5.71619-12.21338.25-.90625-3.3125-11.9375-3.15625-12.125s.0625-2.625.28125-2.5625,3,4.5625,3.4375,4.53961a74.53758,74.53758,0,0,0,6.484-5.61078C73.81322,74.212,73.729,73.06235,73.729,73.06235Z" style="opacity: 0.1"/>
<path d="M59.48119,73.51787c-1.62567-.15328-7.82232-3.54789-7.65777-4.55969,0,0-2.96271,3.64569-3.24655,4.10417s6.52865,7.11474,6.52865,7.11474Z" style="fill: #f0ede9"/>
<path d="M62.8247,73.51787c1.62567-.15328,7.82232-3.54789,7.65777-4.55969,0,0,2.96271,3.64569,3.24655,4.10417s-6.52865,7.11474-6.52865,7.11474Z" style="fill: #f0ede9"/>
<path d="M62.9381,79.58334l-.30133-.98437-1.6875-1.57812L59.50133,78.25l-.16663,1.33337S56.168,89.75,56.00127,90.91666,61.1386,102.792,61.1386,102.792s5.29956-10.70863,5.13294-11.87531S62.9381,79.58334,62.9381,79.58334Z" style="fill: #f0ede9"/>
<path d="M59.48119,80.06247a1.98959,1.98959,0,0,1,.93683-.17456c.14581.02875-.375,4.17456,0,4.65375a.82718.82718,0,0,0,1.39581,0,5.65446,5.65446,0,0,0,.35376-2.45831,23.69377,23.69377,0,0,1-.39539-2.39587,2.48069,2.48069,0,0,0,1.00208-.63922l-.13751-.44928-1.6875-1.57812L59.50133,78.25l-.16663,1.33337s-.05658.18158-.153.49261A.64711.64711,0,0,0,59.48119,80.06247Z" style="opacity: 0.1"/>
<path d="M60.13677,79.19271c.5937.13907.75.25.82813.51563s-.64062,3.89063,0,4.40625.85938-.96875.8125-2.01562a18.51872,18.51872,0,0,0-.53921-2.51562c.00546-.26276.94-.359.90367-.60921S60.13677,79.19271,60.13677,79.19271Z" style="opacity: 0.1"/>
<path d="M58.95969,74.20833s1.14481-1.875,2.21824-1.5,2.6151.45833,2.57343,1.20833A2.54155,2.54155,0,0,1,62.543,75.625s.45833,2.79167.08333,3.04167a3.01421,3.01421,0,0,1-1.66667.66667,8.9413,8.9413,0,0,0-1.625.25c-.25,0-.83333-2.54167.125-3C59.45969,76.58333,58.21984,75.13194,58.95969,74.20833Z" style="fill: #f0ede9"/>
<path d="M73.73351,73.06235S62.17059,94.0625,60.543,94.0625,48.5769,73.06235,48.5769,73.06235l-1.31512.98975.96875,9.46875,12.90369,14.1875,12.94562-14.1875.96875-9.46875Z" style="opacity: 0.1"/>
<path d="M48.57687,73.06235c.27865,8.771,12.59478,21.95849,12.59478,24.33349v27.71876L57.793,131.33333l-15.97984-5.49794,2.12194-51.26776Z" style="fill: #303b78"/>
<path d="M60.22195,126.86263l-.85981-1.65871s.03235-27.78235.28235-28.28235a11.36824,11.36824,0,0,1,.795-1.24291L61.17165,97l-.50085,29.03646Z" style="opacity: 0.1"/>
<path d="M73.73349,73.06235c-.27865,8.771-13.73214,21.95849-13.73214,24.33349v27.71876l4.516,6.21874,15.97984-5.49794L78.37524,74.56763Z" style="fill: #303b78"/>
<path d="M61.15289,99.07845a.99414.99414,0,1,1,.99414-.99414A.99536.99536,0,0,1,61.15289,99.07845Zm0-1.73828a.74414.74414,0,1,0,.74414.74414A.74519.74519,0,0,0,61.15289,97.34017Z" style="opacity: 0.1"/>
<circle cx="61.15295" cy="98.08455" r="0.86924" style="fill: #303b78"/>
<circle cx="60.78347" cy="97.71507" r="0.30023" style="fill: #fff;opacity: 0.2"/>
<path d="M61.5556,97.327a.84718.84718,0,0,1,.11169.40265.86927.86927,0,0,1-.86926.86926.84718.84718,0,0,1-.40265-.11169.86028.86028,0,0,0,.75757.46655.86926.86926,0,0,0,.86926-.8692A.86014.86014,0,0,0,61.5556,97.327Z" style="opacity: 0.05"/>
<path d="M61.15289,107.6429a.99463.99463,0,1,1,.99414-.99512A.99557.99557,0,0,1,61.15289,107.6429Zm0-1.73926a.74463.74463,0,1,0,.74414.74414A.74519.74519,0,0,0,61.15289,105.90365Z" style="opacity: 0.1"/>
<circle cx="61.15295" cy="106.64819" r="0.86924" style="fill: #303b78"/>
<circle cx="60.78347" cy="106.27872" r="0.30023" style="fill: #fff;opacity: 0.2"/>
<path d="M61.5556,105.89064a.84718.84718,0,0,1,.11169.40265.86927.86927,0,0,1-.86926.86926.84718.84718,0,0,1-.40265-.11169.86028.86028,0,0,0,.75757.46655.86926.86926,0,0,0,.86926-.8692A.86014.86014,0,0,0,61.5556,105.89064Z" style="opacity: 0.05"/>
<path d="M61.15289,116.20638a.99463.99463,0,1,1,.99414-.99414A.99536.99536,0,0,1,61.15289,116.20638Zm0-1.73926a.74463.74463,0,1,0,.74414.74512A.7454.7454,0,0,0,61.15289,114.46712Z" style="opacity: 0.1"/>
<circle cx="61.15295" cy="115.21184" r="0.86924" style="fill: #303b78"/>
<circle cx="60.78347" cy="114.84236" r="0.30023" style="fill: #fff;opacity: 0.2"/>
<path d="M61.5556,114.45429a.84718.84718,0,0,1,.11169.40265.86927.86927,0,0,1-.86926.86926.84718.84718,0,0,1-.40265-.11169.86028.86028,0,0,0,.75757.46655.86926.86926,0,0,0,.86926-.8692A.86014.86014,0,0,0,61.5556,114.45429Z" style="opacity: 0.05"/>
<path d="M61.15289,124.76986a.99414.99414,0,1,1,.99414-.99414A.99536.99536,0,0,1,61.15289,124.76986Zm0-1.73828a.74414.74414,0,1,0,.74414.74414A.74519.74519,0,0,0,61.15289,123.03158Z" style="opacity: 0.1"/>
<circle cx="61.15295" cy="123.77548" r="0.86924" style="fill: #303b78"/>
<circle cx="60.78347" cy="123.40601" r="0.30023" style="fill: #fff;opacity: 0.2"/>
<path d="M61.5556,123.01793a.84718.84718,0,0,1,.11169.40265.86927.86927,0,0,1-.86926.86926.84718.84718,0,0,1-.40265-.11169.86028.86028,0,0,0,.75757.46655.86926.86926,0,0,0,.86926-.8692A.86014.86014,0,0,0,61.5556,123.01793Z" style="opacity: 0.05"/>
<path d="M29.14576,130.83584l.06393.49749a25.56,25.56,0,0,0,5.39583,1.77083,40.69268,40.69268,0,0,0,6.64583-.3125s.3852-1.20125.1875-1.20833S29.14576,130.83584,29.14576,130.83584Z" style="fill: #f0ede9"/>
<path d="M50.266,70.889s4.76139,2.5537,4.80827,2.64745,1.84375,36.60912,1.78125,38.79675-7.6875,35.25013-9.59375,38.31263Z" style="opacity: 0.1"/>
<path d="M45.793,73.70059c-.21037.24648-7.34375,2.08587-7.35937,2.22649s-3.70312,10.3644-4.70312,13.91658-4.72917,31.323-4.72917,40.90634a13.92706,13.92706,0,0,0,7.08333,1.849c4-.099,5.10195-.62665,5.10195-.62665l-.58112,17.361s6.0625,2.5,6.65625,1.3125,8.08161-32.5625,8.11893-39.9375-1.02518-36.625-1.02518-36.625Z" style="fill: #303b78"/>
<path d="M46.75133,83.41666s2.58337-.45831,3.54169-.75,4.08575-7.25,4.08575-7.25l.02637.05133c-.03125-.87939-.04962-1.38464-.04962-1.38464l-8.5625-.38275s1.16669,5.09106,1.20831,5.71606S46.75133,83.41666,46.75133,83.41666Z" style="opacity: 0.1"/>
<path d="M48.77151,70.35756a.35778.35778,0,0,1,.52939-.13694c1.297.89174,5.42386,3.75722,5.05463,3.86271-.4375.125-3.6875,6.82921-4.6875,7.4771a7.36053,7.36053,0,0,1-2.16669.8979s.3463-3.1779.25649-3.5577-2.02731-4.89528-1.96481-5.2C45.85,73.42289,48.10378,71.75492,48.77151,70.35756Z" style="fill: #303b78"/>
<path d="M41.18664,131.97232c.07412-3.5271.2575-7.04549.45745-10.56257.18857-3.518.45544-7.02972.72262-10.54145.29088-3.50983.58379-7.0195.95383-10.523l.55861-5.255c.22265-1.74876.411-3.50027.66388-5.24662-.02683,1.76437-.11817,3.52359-.17521,5.28555l-.28049,5.27717c-.18937,3.51791-.45585,7.02969-.72437,10.54131-.29222,3.50972-.58475,7.01942-.95557,10.52288C42.04793,124.97493,41.67191,128.478,41.18664,131.97232Z" style="opacity: 0.1"/>
<path d="M38.43365,75.92709a8.10741,8.10741,0,0,1,2.73661,2.7874,23.08332,23.08332,0,0,1,1.83151,3.48218A25.00232,25.00232,0,0,1,44.213,85.9383a12.58247,12.58247,0,0,1,.33,3.90536,17.99094,17.99094,0,0,0-.70271-3.81034,30.65677,30.65677,0,0,0-1.29919-3.64371,27.73985,27.73985,0,0,0-1.69614-3.4732A9.86936,9.86936,0,0,0,38.43365,75.92709Z" style="opacity: 0.05"/>
<path d="M49.38558,80.37594A1.5346,1.5346,0,1,1,50.792,78.92545,1.43686,1.43686,0,0,1,49.38558,80.37594Zm.13675-2.65581a1.14869,1.14869,0,1,0,.93564,1.18812A1.07572,1.07572,0,0,0,49.52233,77.72013Z" style="opacity: 0.1"/>
<ellipse cx="49.46385" cy="78.85742" rx="1.32982" ry="1.16286" transform="translate(-31.83286 124.20066) rotate(-87.05232)" style="fill: #303b78"/>
<ellipse cx="48.9993" cy="78.26751" rx="0.45931" ry="0.40164" transform="translate(-31.6844 123.17715) rotate(-87.05232)" style="fill: #fff;opacity: 0.2"/>
<path d="M50.06139,77.72771a1.43989,1.43989,0,0,1,.11755.62286,1.25482,1.25482,0,0,1-1.22973,1.26829,1.02807,1.02807,0,0,1-.52916-.19835,1.1456,1.1456,0,0,0,.97542.76493,1.25479,1.25479,0,0,0,1.22973-1.2682A1.34684,1.34684,0,0,0,50.06139,77.72771Z" style="opacity: 0.05"/>
<path d="M52.5836,96.698a1.52089,1.52089,0,1,1,1.52089-1.52089A1.52276,1.52276,0,0,1,52.5836,96.698Zm0-2.65932A1.13843,1.13843,0,1,0,53.722,95.17707,1.14,1.14,0,0,0,52.5836,94.03864Z" style="opacity: 0.1"/>
<circle cx="52.58369" cy="95.17743" r="1.32982" style="fill: #303b78"/>
<circle cx="52.01845" cy="94.61219" r="0.45931" style="fill: #fff;opacity: 0.2"/>
<path d="M53.19969,94.01849a1.29607,1.29607,0,0,1,.17088.616,1.32987,1.32987,0,0,1-1.32985,1.32985,1.29607,1.29607,0,0,1-.616-.17088,1.3161,1.3161,0,0,0,1.159.71376,1.32985,1.32985,0,0,0,1.32985-1.32976A1.3159,1.3159,0,0,0,53.19969,94.01849Z" style="opacity: 0.05"/>
<path d="M53.04695,106.11688a1.52089,1.52089,0,1,1,1.52089-1.52089A1.52276,1.52276,0,0,1,53.04695,106.11688Zm0-2.65932a1.13843,1.13843,0,1,0,1.13843,1.13843A1.14,1.14,0,0,0,53.04695,103.45756Z" style="opacity: 0.1"/>
<circle cx="53.04704" cy="104.59635" r="1.32982" style="fill: #303b78"/>
<circle cx="52.4818" cy="104.0311" r="0.45931" style="fill: #fff;opacity: 0.2"/>
<path d="M53.663,103.4374a1.29607,1.29607,0,0,1,.17088.616,1.32987,1.32987,0,0,1-1.32985,1.32985,1.29607,1.29607,0,0,1-.616-.17088,1.3161,1.3161,0,0,0,1.159.71376,1.32985,1.32985,0,0,0,1.32985-1.32976A1.3159,1.3159,0,0,0,53.663,103.4374Z" style="opacity: 0.05"/>
<path d="M52.56048,114.80662a1.52089,1.52089,0,1,1,1.52089-1.52089A1.52276,1.52276,0,0,1,52.56048,114.80662Zm0-2.65932a1.13843,1.13843,0,1,0,1.13843,1.13843A1.14,1.14,0,0,0,52.56048,112.1473Z" style="opacity: 0.1"/>
<circle cx="52.56057" cy="113.28609" r="1.32982" style="fill: #303b78"/>
<circle cx="51.99533" cy="112.72085" r="0.45931" style="fill: #fff;opacity: 0.2"/>
<path d="M53.17656,112.12715a1.29607,1.29607,0,0,1,.17088.616,1.32987,1.32987,0,0,1-1.32985,1.32985,1.29607,1.29607,0,0,1-.616-.17088,1.3161,1.3161,0,0,0,1.159.71376,1.32985,1.32985,0,0,0,1.32985-1.32976A1.3159,1.3159,0,0,0,53.17656,112.12715Z" style="opacity: 0.05"/>
<path d="M50.83,124.9269a1.52089,1.52089,0,1,1,1.52089-1.52089A1.52276,1.52276,0,0,1,50.83,124.9269Zm0-2.65932A1.13843,1.13843,0,1,0,51.9684,123.406,1.14,1.14,0,0,0,50.83,122.26758Z" style="opacity: 0.1"/>
<circle cx="50.83007" cy="123.40637" r="1.32982" style="fill: #303b78"/>
<circle cx="50.26482" cy="122.84113" r="0.45931" style="fill: #fff;opacity: 0.2"/>
<path d="M51.44606,122.24743a1.29607,1.29607,0,0,1,.17088.616,1.32987,1.32987,0,0,1-1.32985,1.32985,1.29607,1.29607,0,0,1-.616-.17088,1.3161,1.3161,0,0,0,1.159.71376,1.32985,1.32985,0,0,0,1.32985-1.32976A1.3159,1.3159,0,0,0,51.44606,122.24743Z" style="opacity: 0.05"/>
<ellipse cx="29.4528" cy="127.69804" rx="0.74839" ry="1.32982" style="opacity: 0.1"/>
<ellipse cx="29.57652" cy="123.65116" rx="0.74839" ry="1.32982" style="opacity: 0.1"/>
<ellipse cx="29.85103" cy="119.60429" rx="0.74839" ry="1.32982" style="opacity: 0.1"/>
<ellipse cx="29.23726" cy="127.69804" rx="0.74839" ry="1.32982" style="fill: #303b78"/>
<ellipse cx="28.91915" cy="127.13279" rx="0.25849" ry="0.45931" style="fill: #fff;opacity: 0.2"/>
<path d="M29.58393,126.53909a2.11252,2.11252,0,0,1,.09617.616c0,.7344-.33506,1.32985-.74841,1.32985a.51882.51882,0,0,1-.34667-.17088c.126.41879.36632.71376.65224.71376.4133,0,.74841-.59536.74841-1.32976A1.62708,1.62708,0,0,0,29.58393,126.53909Z" style="opacity: 0.05"/>
<ellipse cx="29.40472" cy="123.65116" rx="0.74839" ry="1.32982" style="fill: #303b78"/>
<ellipse cx="29.08661" cy="123.08592" rx="0.25849" ry="0.45931" style="fill: #fff;opacity: 0.2"/>
<path d="M29.75139,122.49222a2.11252,2.11252,0,0,1,.09617.616c0,.7344-.33506,1.32985-.74841,1.32985a.51882.51882,0,0,1-.34667-.17088c.126.41879.36632.71376.65224.71376.4133,0,.74841-.59536.74841-1.32976A1.62708,1.62708,0,0,0,29.75139,122.49222Z" style="opacity: 0.05"/>
<ellipse cx="29.72283" cy="119.60429" rx="0.74839" ry="1.32982" style="fill: #303b78"/>
<ellipse cx="29.40473" cy="119.03904" rx="0.25849" ry="0.45931" style="fill: #fff;opacity: 0.2"/>
<path d="M30.0695,118.44534a2.11252,2.11252,0,0,1,.09617.616c0,.7344-.33506,1.32985-.74841,1.32985a.51882.51882,0,0,1-.34667-.17088c.126.41879.36632.71376.65224.71376.4133,0,.74841-.59536.74841-1.32976A1.62708,1.62708,0,0,0,30.0695,118.44534Z" style="opacity: 0.05"/>
<path d="M93.16123,130.83584l-.06393.49749a25.56,25.56,0,0,1-5.39583,1.77083,40.69268,40.69268,0,0,1-6.64583-.3125s-.3852-1.20125-.1875-1.20833S93.16123,130.83584,93.16123,130.83584Z" style="fill: #f0ede9"/>
<path d="M72.041,70.889s-4.76139,2.5537-4.80827,2.64745-1.84375,36.60912-1.78125,38.79675,7.6875,35.25013,9.59375,38.31263Z" style="opacity: 0.1"/>
<path d="M76.514,73.70059c.21037.24648,7.34375,2.08587,7.35938,2.22649s3.70313,10.3644,4.70313,13.91658,4.72917,31.323,4.72917,40.90634a13.92706,13.92706,0,0,1-7.08333,1.849c-4-.099-5.10195-.62665-5.10195-.62665l.58112,17.361s-6.0625,2.5-6.65625,1.3125-8.08161-32.5625-8.11893-39.9375,1.02518-36.625,1.02518-36.625Z" style="fill: #303b78"/>
<path d="M75.55566,83.41666s-2.58337-.45831-3.54169-.75-4.08575-7.25-4.08575-7.25l-.02637.05133c.03125-.87939.04962-1.38464.04962-1.38464l8.5625-.38275s-1.16669,5.09106-1.20831,5.71606S75.55566,83.41666,75.55566,83.41666Z" style="opacity: 0.1"/>
<path d="M73.53548,70.35756a.35778.35778,0,0,0-.52939-.13694c-1.297.89174-5.42386,3.75722-5.05463,3.86271.4375.125,3.6875,6.82921,4.6875,7.4771a7.36053,7.36053,0,0,0,2.16669.8979s-.3463-3.1779-.25649-3.5577,2.02731-4.89528,1.96481-5.2C76.457,73.42289,74.20321,71.75492,73.53548,70.35756Z" style="fill: #303b78"/>
<path d="M81.12035,131.97232c-.07412-3.5271-.2575-7.04549-.45745-10.56257-.18857-3.518-.45544-7.02972-.72262-10.54145-.29088-3.50983-.58379-7.0195-.95382-10.523l-.55861-5.255c-.22265-1.74876-.411-3.50027-.66388-5.24662.02683,1.76437.11817,3.52359.17521,5.28555l.28049,5.27717c.18937,3.51791.45585,7.02969.72437,10.54131.29222,3.50972.58475,7.01942.95557,10.52288C80.25906,124.97493,80.63508,128.478,81.12035,131.97232Z" style="opacity: 0.1"/>
<path d="M83.87334,75.92709a8.10741,8.10741,0,0,0-2.73661,2.7874,23.08332,23.08332,0,0,0-1.83151,3.48218A25.00232,25.00232,0,0,0,78.094,85.9383a12.58247,12.58247,0,0,0-.33,3.90536,17.99094,17.99094,0,0,1,.70271-3.81034,30.65677,30.65677,0,0,1,1.29919-3.64371,27.73985,27.73985,0,0,1,1.69614-3.4732A9.86936,9.86936,0,0,1,83.87334,75.92709Z" style="opacity: 0.05"/>
<path d="M71.515,78.92545a1.34193,1.34193,0,1,1,1.40639,1.45049A1.43686,1.43686,0,0,1,71.515,78.92545Zm.334-.0172a1.00447,1.00447,0,1,0,.93564-1.18812A1.07572,1.07572,0,0,0,71.849,78.90825Z" style="opacity: 0.1"/>
<ellipse cx="72.84314" cy="78.85742" rx="1.16286" ry="1.32982" transform="translate(-3.95879 3.85022) rotate(-2.94768)" style="fill: #303b78"/>
<ellipse cx="73.30769" cy="78.26751" rx="0.40164" ry="0.45931" transform="translate(-3.92784 3.87333) rotate(-2.94768)" style="fill: #fff;opacity: 0.2"/>
<path d="M72.2456,77.72771a1.43989,1.43989,0,0,0-.11755.62286,1.25482,1.25482,0,0,0,1.22973,1.26829,1.02807,1.02807,0,0,0,.52916-.19835,1.1456,1.1456,0,0,1-.97542.76493,1.25479,1.25479,0,0,1-1.22973-1.2682A1.34684,1.34684,0,0,1,72.2456,77.72771Z" style="opacity: 0.05"/>
<path d="M68.2025,95.17707A1.52089,1.52089,0,1,1,69.72339,96.698,1.52276,1.52276,0,0,1,68.2025,95.17707Zm.38246,0a1.13843,1.13843,0,1,0,1.13843-1.13843A1.14,1.14,0,0,0,68.585,95.17707Z" style="opacity: 0.1"/>
<circle cx="69.7233" cy="95.17743" r="1.32982" style="fill: #303b78"/>
<circle cx="70.28854" cy="94.61219" r="0.45931" style="fill: #fff;opacity: 0.2"/>
<path d="M69.1073,94.01849a1.29607,1.29607,0,0,0-.17088.616,1.32987,1.32987,0,0,0,1.32985,1.32985,1.29607,1.29607,0,0,0,.616-.17088,1.3161,1.3161,0,0,1-1.159.71376,1.32985,1.32985,0,0,1-1.32985-1.32976A1.3159,1.3159,0,0,1,69.1073,94.01849Z" style="opacity: 0.05"/>
<path d="M67.73915,104.596A1.52089,1.52089,0,1,1,69.26,106.11688,1.52276,1.52276,0,0,1,67.73915,104.596Zm.38246,0A1.13843,1.13843,0,1,0,69.26,103.45756,1.14,1.14,0,0,0,68.12161,104.596Z" style="opacity: 0.1"/>
<circle cx="69.25995" cy="104.59635" r="1.32982" style="fill: #303b78"/>
<circle cx="69.82519" cy="104.0311" r="0.45931" style="fill: #fff;opacity: 0.2"/>
<path d="M68.644,103.4374a1.29607,1.29607,0,0,0-.17088.616,1.32987,1.32987,0,0,0,1.32985,1.32985,1.29607,1.29607,0,0,0,.616-.17088,1.3161,1.3161,0,0,1-1.159.71376,1.32985,1.32985,0,0,1-1.32985-1.32976A1.3159,1.3159,0,0,1,68.644,103.4374Z" style="opacity: 0.05"/>
<path d="M68.22562,113.28573a1.52089,1.52089,0,1,1,1.52089,1.52089A1.52276,1.52276,0,0,1,68.22562,113.28573Zm.38246,0a1.13843,1.13843,0,1,0,1.13843-1.13843A1.14,1.14,0,0,0,68.60809,113.28573Z" style="opacity: 0.1"/>
<circle cx="69.74642" cy="113.28609" r="1.32982" style="fill: #303b78"/>
<circle cx="70.31166" cy="112.72085" r="0.45931" style="fill: #fff;opacity: 0.2"/>
<path d="M69.13043,112.12715a1.29607,1.29607,0,0,0-.17088.616A1.32987,1.32987,0,0,0,70.2894,114.073a1.29607,1.29607,0,0,0,.616-.17088,1.3161,1.3161,0,0,1-1.159.71376,1.32985,1.32985,0,0,1-1.32985-1.32976A1.3159,1.3159,0,0,1,69.13043,112.12715Z" style="opacity: 0.05"/>
<path d="M69.95612,123.406A1.52089,1.52089,0,1,1,71.477,124.9269,1.52276,1.52276,0,0,1,69.95612,123.406Zm.38246,0a1.13843,1.13843,0,1,0,1.13843-1.13843A1.14,1.14,0,0,0,70.33859,123.406Z" style="opacity: 0.1"/>
<circle cx="71.47693" cy="123.40637" r="1.32982" style="fill: #303b78"/>
<circle cx="72.04217" cy="122.84113" r="0.45931" style="fill: #fff;opacity: 0.2"/>
<path d="M70.86093,122.24743a1.29607,1.29607,0,0,0-.17088.616,1.32987,1.32987,0,0,0,1.32985,1.32985,1.29607,1.29607,0,0,0,.616-.17088,1.3161,1.3161,0,0,1-1.159.71376,1.32985,1.32985,0,0,1-1.32985-1.32976A1.3159,1.3159,0,0,1,70.86093,122.24743Z" style="opacity: 0.05"/>
<ellipse cx="92.85419" cy="127.69804" rx="0.74839" ry="1.32982" style="opacity: 0.1"/>
<ellipse cx="92.73048" cy="123.65116" rx="0.74839" ry="1.32982" style="opacity: 0.1"/>
<ellipse cx="92.45597" cy="119.60429" rx="0.74839" ry="1.32982" style="opacity: 0.1"/>
<ellipse cx="93.06973" cy="127.69804" rx="0.74839" ry="1.32982" style="fill: #303b78"/>
<ellipse cx="93.38784" cy="127.13279" rx="0.25849" ry="0.45931" style="fill: #fff;opacity: 0.2"/>
<path d="M92.72306,126.53909a2.11252,2.11252,0,0,0-.09617.616c0,.7344.33506,1.32985.74841,1.32985a.51882.51882,0,0,0,.34667-.17088c-.126.41879-.36632.71376-.65224.71376-.4133,0-.74841-.59536-.74841-1.32976A1.62708,1.62708,0,0,1,92.72306,126.53909Z" style="opacity: 0.05"/>
<ellipse cx="92.90227" cy="123.65116" rx="0.74839" ry="1.32982" style="fill: #303b78"/>
<ellipse cx="93.22038" cy="123.08592" rx="0.25849" ry="0.45931" style="fill: #fff;opacity: 0.2"/>
<path d="M92.5556,122.49222a2.11252,2.11252,0,0,0-.09617.616c0,.7344.33506,1.32985.74841,1.32985a.51882.51882,0,0,0,.34667-.17088c-.126.41879-.36632.71376-.65224.71376-.4133,0-.74841-.59536-.74841-1.32976A1.62708,1.62708,0,0,1,92.5556,122.49222Z" style="opacity: 0.05"/>
<ellipse cx="92.58416" cy="119.60429" rx="0.74839" ry="1.32982" style="fill: #303b78"/>
<ellipse cx="92.90226" cy="119.03904" rx="0.25849" ry="0.45931" style="fill: #fff;opacity: 0.2"/>
<path d="M92.23749,118.44534a2.11252,2.11252,0,0,0-.09617.616c0,.7344.33506,1.32985.74841,1.32985a.51882.51882,0,0,0,.34667-.17088c-.126.41879-.36632.71376-.65224.71376-.4133,0-.74841-.59536-.74841-1.32976A1.62708,1.62708,0,0,1,92.23749,118.44534Z" style="opacity: 0.05"/>
<path d="M93.144,126.39481c-.02887-.46771-.062-.9538-.09753-1.45093a.49157.49157,0,0,0,.10651-.0528.64963.64963,0,0,0,.08838-.07178.88959.88959,0,0,0,.10876-.13031,1.77175,1.77175,0,0,0,.3006-1.03784c0-.73444-.33508-1.32983-.74841-1.32983-.02136,0-.03937.01849-.0603.02161q-.06024-.70908-.12708-1.44244a.48552.48552,0,0,0,.11993-.05627.64963.64963,0,0,0,.08838-.07178.88959.88959,0,0,0,.10876-.13031,1.77175,1.77175,0,0,0,.3006-1.03784c0-.73444-.33508-1.32983-.74841-1.32983-.02271,0-.04187.01947-.06409.023-.01941-.00311-.03613-.01965-.05591-.02008-1.16071-11.66125-3.18927-25.95276-3.8877-28.43372-1-3.55219-4.6875-13.77594-4.70312-13.91656s-7.149-1.98-7.35937-2.2265c-.05695-.27771-2.31073-1.94568-2.97852-3.343a.35774.35774,0,0,0-.52936-.137c-.24.165-.57764.39819-.96509.6684l-.00079.00043c-.79077-.98749-1.55774-1.93127-1.55774-1.93127.14948.91907-4.93866,3.7959-7.09326,4.43213a16.91373,16.91373,0,0,0-2.2113-.68195c-.017-.00592-.03406-.00555-.05109-.01038V126.6644l3.3905,4.66895,4.69354-1.61481c2.23724,9.36792,4.82977,19.31335,5.83435,20.92731.59375,1.1875,6.65625-1.3125,6.65625-1.3125l-.55334-16.53082a39.1015,39.1015,0,0,0,6.55334.30164,25.56045,25.56045,0,0,0,5.39581-1.77081l.064-.4975h-.00018c.09436-.05432.14459-.08588.14459-.08588,0-.53448-.01324-1.13342-.03534-1.77368a.60929.60929,0,0,0,.05-.03833.64705.64705,0,0,0,.0885-.0719.8875.8875,0,0,0,.1087-.13019,1.77218,1.77218,0,0,0,.30054-1.03784C93.81811,127.01035,93.52068,126.464,93.144,126.39481Z" style="opacity: 0.1"/><path d="M80.14519,37.16885A27.22,27.22,0,0,1,77.5064,32.157a3.54608,3.54608,0,0,0,1.57831.17877,35.18468,35.18468,0,0,1-2.625-4.54407,6.283,6.283,0,0,0,2.28113-.625s-3.6145-2.125-4.44781-4.54169-5.79681-7.18909-9.66925-5.74036c0,0,3.55377-2.05127,5.19482-1.468,0,0-2.10889-3.23077-5.52557,1.468,0,0-1.58331-4.05127-3.95831-3.718,0,0,3.76678,3.29834,3.61255,3.92,0,0-4.86255-2.58569-8.36255-.19037s-5.79169,0-5.79169,0S50.62633,18.75,51.20971,19c0,0-5.125,4.54169-5.66669,7.75s-4.04169,3.29169-4.04169,3.29169,1.83337,1.63489,3.5.33826c0,0-1.04163,4.53674-4.08331,5.16174a2.38726,2.38726,0,0,0,3.5-.20831s.41669,5.75,2.125,6.625c0,0,.25-4.79169.375-5.91669,0,0,.66669,2.54565,1.54169,3.08533,0,0-.20837-5.41864.125-6.252a8.04776,8.04776,0,0,0,4.66663-3.125L52.418,32.95834s4.45831-1.75,4.91669-5.91669S68.89336,31.184,68.89336,31.184a10.03359,10.03359,0,0,0,3.69135,3.066,18.51056,18.51056,0,0,1-.33337-3.87006,11.964,11.964,0,0,0,3.09082,3.40424c.17157,2.20062-1.21582,5.54919-1.21582,5.54919A5.28635,5.28635,0,0,0,76.043,38.75l-.70831,2.5a3.24208,3.24208,0,0,0,2.29163-2.123,6.96908,6.96908,0,0,0,.58337-2.66864S79.53344,36.90006,80.14519,37.16885Z" style="fill: #fbdaa4"/>
<path d="M55.73162,25.25949A5.10536,5.10536,0,0,1,49.90976,24.125s-.04718,3.07292.73743,3.97917,2.86458,1.44793,3.45833,1.63543a4.137,4.137,0,0,1,1.32452,1.153,6.49055,6.49055,0,0,0,1.90466-3.851C57.793,22.875,68.89336,31.184,68.89336,31.184A10.7021,10.7021,0,0,0,70.954,33.24533c-.4176-3.40887-1.23578-8.92456-2.30316-10.42072C67.07427,20.61459,57.729,24.52942,55.73162,25.25949Z" style="opacity: 0.2"/>
<path d="M68.89338,23.47461c1.41282,5.00826,1.04053,10.40529,0,10.78366V31.184s-2.60132,3.92563-3.92563,4.58779-5.15535,3.87833-4.63508,4.58779a9.73385,9.73385,0,0,1-1.5135-1.23918s-.14189,1.94863.52026,2.46889c0,0-1.75-.23648-2.12835-1.22972a1.76786,1.76786,0,0,1,0-1.56079,7.37193,7.37193,0,0,1-2.12835-.14189,10.49922,10.49922,0,0,0,2.83781-4.4459S55.88677,36.90689,54.0422,36.292c0,0,2.8851-4.20941,2.9797-6.527,0,0-7.73536.19882-6.83673-5.09842,0,0,1.16111,3.01736,4.61378,1.17278s6.14858-6.66884,6.14858-6.66884S67.70943,19.27766,68.89338,23.47461Z" style="fill: #fbdaa4"/>
<path d="M80.14519,37.16885A27.22,27.22,0,0,1,77.5064,32.157a3.54608,3.54608,0,0,0,1.57831.17877,35.18468,35.18468,0,0,1-2.625-4.54407,6.283,6.283,0,0,0,2.28113-.625s-3.6145-2.125-4.44781-4.54169-5.79681-7.18909-9.66925-5.74036c0,0,3.55377-2.05127,5.19482-1.468,0,0-2.10889-3.23077-5.52557,1.468,0,0-1.23529-3.15332-3.15881-3.66364v.66608c1.09631,1.0069,2.92145,2.7627,2.813,3.19965a12.05806,12.05806,0,0,0-2.813-.98016V38.86716a18.32731,18.32731,0,0,1,3.83356-3.0954c1.32428-.66217,3.9256-4.58777,3.9256-4.58777v3.07428c.37665-.137.66364-.9375.81219-2.133l.009.009c.11609.12042.231.23828.34583.347.10382.09875.20416.19012.30591.27966.07306.064.1441.12476.2157.1842.12756.10632.25079.208.37183.3l.00024.00018A8.61722,8.61722,0,0,0,72.58471,34.25a18.51056,18.51056,0,0,1-.33337-3.87006,11.964,11.964,0,0,0,3.09082,3.40424c.17157,2.20062-1.21582,5.54919-1.21582,5.54919A5.28635,5.28635,0,0,0,76.043,38.75l-.70831,2.5a3.24208,3.24208,0,0,0,2.29163-2.123,6.96908,6.96908,0,0,0,.58337-2.66864S79.53344,36.90006,80.14519,37.16885Z" style="opacity: 0.2"/></svg>