<svg xmlns="http://www.w3.org/2000/svg" viewBox="0 0 4132.67 1977.82">
  <defs>
    <style>
      .cls-1 {
        fill: #514345;
      }

      .cls-2 {
        fill: #43383a;
      }

      .cls-3 {
        fill: #5b4b4f;
      }

      .cls-4 {
        fill: #2d2426;
        opacity: 0.5;
      }

      .cls-5 {
        fill: #352b2e;
      }

      .cls-6 {
        fill: #292223;
      }

      .cls-7 {
        fill: #3c3132;
      }

      .cls-8 {
        fill: #112423;
      }

      .cls-9 {
        fill: #20403e;
      }

      .cls-10 {
        fill: #1b3432;
      }

      .cls-11 {
        fill: #1f3d2e;
      }
    </style>
  </defs>
  <title>plateform-dark</title>
  <g id="Calque_4" data-name="Calque 4">
    <path class="cls-1" d="M21.5,598.89l88.76,200s-3,49.56,0,60.82,36,108.13,36,108.13l151.16,42.8,94.87-205.89-42.46-155.4L101.26,584.91Z"/>
    <polygon class="cls-2" points="349.83 649.38 173.24 603.58 234.17 826.08 297.42 1010.67 392.29 804.78 349.83 649.38"/>
    <polygon class="cls-1" points="234.17 640.19 287.28 832.71 302.28 1094.02 479.3 1260.72 776.33 1330.56 668.31 629.97 234.17 640.19"/>
    <path class="cls-2" d="M434.75,654.87S548.67,791.28,550.67,797.79s22,252.79,22,252.79l65,224.5,26.84,29.19h0l111.81,26.29L668.31,630l-252.45,5.94Z"/>
    <polygon class="cls-2" points="3970.68 778.04 3953.67 949.22 3797.67 1042.32 3757.17 956.73 3970.68 778.04"/>
    <polygon class="cls-1" points="629.54 833.89 602.67 1048.33 644.67 1261.56 704.67 1390.7 858.67 1461.28 954.67 1512.34 1106.67 914.68 629.54 833.89"/>
    <polygon class="cls-1" points="3545.99 1111.86 3695.67 1148.09 3838.67 1069.35 3801.67 966.49 4001.67 743.49 4027.67 614.2 3682.67 578.31 3486.67 756.26 3545.99 1111.86"/>
    <polygon class="cls-2" points="629.54 833.89 776.33 966.49 839.67 1323.13 954.67 1512.34 1106.67 914.68 629.54 833.89"/>
    <polygon class="cls-1" points="832.91 959.8 887.34 1330.56 954.67 1512.34 1058.35 1614.4 1124.36 1634.67 1406.39 1724.78 1316.38 850.73 832.91 959.8"/>
    <polygon class="cls-2" points="4027.67 614.2 3682.67 578.31 3486.67 756.26 3545.99 1111.86 3669.67 866.63 4027.67 614.2"/>
    <polygon class="cls-1" points="2993.28 1449.83 3232.22 1443.3 3497.7 1272.12 3572.7 1023.23 3620.7 845.29 3958.38 627.72 3485.7 584.02 2747.74 931.82 2993.28 1449.83"/>
    <polygon class="cls-2" points="3298.21 1107.69 3496.2 969.17 3721.19 677.42 3958.38 627.72 3485.7 584.02 2747.74 931.82 2993.28 1449.83 3071.71 1353.2 3298.21 1107.69"/>
    <polygon class="cls-1" points="2606.76 1596.5 2704.67 1603.94 2940.67 1558.89 3032.67 1368.18 3254.67 1067.85 3446.67 936.34 3658.67 644.38 3280.67 560.29 2590.67 1132.42 2606.76 1596.5"/>
    <polygon class="cls-2" points="2952.67 1212.01 3086.67 1066.35 3228.67 1006.28 3496.67 691.22 3651.09 654.82 3658.67 644.38 3280.67 560.29 2590.67 1132.42 2606.76 1596.5 2860.67 1392.2 2952.67 1212.01"/>
    <polygon class="cls-1" points="2405.49 1749.56 2639.51 1571.6 2822.53 1359.84 2897.54 1173.12 3035.55 1019.68 3161.56 949.85 3341.36 669.48 2858.53 546.62 2210.47 1184.13 2405.49 1749.56"/>
    <polygon class="cls-2" points="2468.49 1474.73 2597.51 1173.12 2775.91 990.4 3341.36 669.48 2858.53 546.62 2210.47 1184.13 2405.49 1749.56 2468.49 1474.73"/>
    <polygon class="cls-2" points="1244.81 1022.48 1406.39 1724.78 1316.38 850.73 832.91 959.8 973.33 1085.17 1244.81 1022.48"/>
    <polygon class="cls-1" points="1951.17 1974.83 2123.46 1875.71 2405.49 1749.56 2405.49 1449.95 2522.5 1199.9 2651.51 1010.67 2930.54 782.02 3071.71 678.27 2198.47 614.2 1697.42 1136.83 1951.17 1974.83"/>
    <path class="cls-2" d="M2176.67,1156.45l152-297.33s484.19-180.85,743-180.85L2198.47,614.2l-501,522.63,253.75,838,1.51-.87Z"/>
    <polygon class="cls-1" points="1322.81 936.51 1406.39 1724.78 1613.41 1893.73 1736.42 1911.75 1952.44 1974.83 2090.46 1143.58 2354.48 980.26 2423.49 920.57 2498.55 688.83 1991.45 627.72 1322.81 936.51"/>
    <path class="cls-3" d="M529.08,660.12s28.77,113.82,49.77,137.67,375,236.7,388.48,239,345-85.59,355.48-100.23,159-248.86,159-248.86l-286.46-84.07Z"/>
    <path class="cls-1" d="M1481.78,687.65l-113.17-33.21L1256.78,684l99,30.65-33,221.85C1333.31,921.87,1481.78,687.65,1481.78,687.65Z"/>
    <polygon class="cls-2" points="1991.45 627.72 1322.81 936.51 1532.67 1330.56 2184.67 936.34 2090.46 1143.58 2354.48 980.26 2423.49 920.57 2498.55 688.83 1991.45 627.72"/>
    <polygon class="cls-3" points="1406.39 686.58 1322.81 936.51 1562.4 1258.47 2129.46 900.29 2246.47 774.65 2222.47 686.58 1943.44 614.2 1406.39 686.58"/>
    <polygon class="cls-3" points="2210.47 914.68 2276.67 805.06 2276.67 677.42 2820.67 677.42 2434.67 782.02 2374.67 890.65 2194.67 1028.81 2210.47 914.68"/>
    <path class="cls-2" d="M3838.67,1069.35s-121,46.55-128,47.3-164.68-4.79-164.68-4.79l149.68,36.23Z"/>
    <polygon class="cls-2" points="3545.99 1111.86 3497.7 1272.12 3232.22 1443.3 2993.28 1449.83 3218.67 1410.22 3454.67 1248.64 3545.99 1111.86"/>
    <polygon class="cls-2" points="2606.76 1596.5 2717.67 1584.42 2883.67 1542.37 2993.28 1449.83 2940.67 1558.89 2704.67 1603.94 2606.76 1596.5"/>
    <polygon class="cls-2" points="1952.44 1974.83 2128.67 1814.17 2384.56 1730.08 2606.76 1596.5 2405.49 1749.56 2123.46 1875.71 1952.44 1974.83"/>
    <polygon class="cls-2" points="1406.39 1724.78 1615.3 1854.35 1763.79 1896.02 1952.44 1974.83 1736.42 1911.75 1613.41 1893.73 1406.39 1724.78"/>
    <polygon class="cls-2" points="954.67 1512.34 1076.82 1585.19 1406.39 1724.78 1058.35 1614.4 954.67 1512.34"/>
    <polygon class="cls-2" points="664.51 1304.27 704.67 1390.7 858.67 1461.28 954.67 1512.34 868.1 1450.05 748.34 1380.23 664.51 1304.27"/>
    <polygon class="cls-2" points="297.42 1010.67 337.36 1085.17 494.85 1225.94 664.51 1304.27 479.3 1260.72 302.28 1094.02 297.42 1010.67"/>
    <polygon class="cls-2" points="110.26 859.74 154.67 945.47 297.42 1010.67 146.26 967.87 110.26 859.74"/>
    <polygon class="cls-4" points="3620.7 845.29 3496.2 969.17 3254.67 1067.85 3086.67 1066.35 2897.54 1173.12 2597.51 1173.12 2405.49 1449.95 2086.5 1485.55 1609.3 1588.57 1481.78 1539.02 1373.81 1434.29 1330.31 1390.37 989.83 1396 887.34 1330.56 839.67 1323.13 602.67 1069.4 572.67 1050.58 297.5 1010.83 297.43 1010.87 302.28 1094.02 479.3 1260.72 664.51 1304.27 664.51 1304.27 664.51 1304.27 704.67 1390.7 858.67 1461.28 954.67 1512.34 1058.35 1614.4 1406.39 1724.78 1613.41 1893.73 1736.42 1911.75 1951.04 1974.42 1951.17 1974.83 1951.6 1974.58 1952.44 1974.83 1952.58 1974.02 1952.68 1973.96 1954.62 1972.84 1952.44 1974.83 2123.46 1875.71 2405.49 1749.56 2606.76 1596.5 2704.67 1603.94 2940.67 1558.89 2993.28 1449.83 3232.22 1443.3 3497.7 1272.12 3545.99 1111.86 3695.67 1148.09 3838.67 1069.35 3823.42 1026.95 3953.67 949.22 3970.68 778.04 3970.68 778.04 4001.67 743.49 4027.67 614.2 3958.38 627.72 3620.7 845.29"/>
  </g>
  <g id="Calque_8" data-name="Calque 8">
    <polygon class="cls-1" points="250.67 64.83 212.67 305.83 287.67 348.83 325.67 216.83 250.67 64.83"/>
    <polygon class="cls-2" points="212.67 305.83 307.67 390.83 287.67 348.83 212.67 305.83"/>
    <polygon class="cls-2" points="381.67 230.83 345.67 100.83 250.67 64.83 325.67 216.83 381.67 230.83"/>
    <polygon class="cls-5" points="307.67 390.83 381.67 230.83 352.67 144.83 325.67 216.83 287.67 348.83 307.67 390.83"/>
    <polygon class="cls-6" points="345.67 100.83 352.67 144.83 381.67 230.83 345.67 100.83"/>
    <path class="cls-3" d="M3733.67,1531.83l181-20s52-99,56-103,41-61.13,41-61.13l-116,40.13-130,93.79Z"/>
    <polygon class="cls-2" points="4011.67 1347.7 3989.33 1458.16 3992.67 1561.5 4000.5 1724.83 3888 1794.16 3854.7 1518.46 4011.67 1347.7"/>
    <polygon class="cls-1" points="3733.67 1531.83 3745.33 1638.83 3811.33 1732.83 3888 1794.16 3958.38 1674.83 3958.38 1524.52 3914.67 1511.83 3733.67 1531.83"/>
    <polygon class="cls-5" points="3888 1794.16 3958.38 1674.83 3958.38 1524.52 3989.33 1458.16 4000.5 1724.83 3888 1794.16"/>
    <polygon class="cls-3" points="3745.33 1638.83 3863.93 1615.5 3859.33 1712.83 3811.33 1732.83 3745.33 1638.83"/>
    <polygon class="cls-2" points="3863.76 1618.88 3958.38 1524.52 3958.38 1674.83 3859.33 1712.83 3863.76 1618.88"/>
    <polygon class="cls-7" points="3811.33 1732.83 3831.33 1765.5 3888 1794.16 3958.38 1674.83 3859.33 1712.83 3811.33 1732.83"/>
  </g>
  <g id="Calque_7" data-name="Calque 7">
    <path class="cls-8" d="M765.65,1789.83A15,15,0,0,1,751,1778.15c-1.33-5.86-32.46-144.55-21.78-231.16,3-24.22,10.64-61.2,19.5-104,21.12-102.08,53-256.33,32.73-315.26-11-31.75-28.58-67-45.63-101.07-30.62-61.21-59.54-119-58.19-166.92C679.79,785,768,669.56,771.78,664.68A15,15,0,0,1,795.56,683h0c-.87,1.11-86.06,112.62-87.9,177.59-1.14,40.37,27.42,97.46,55,152.66,17.49,35,35.57,71.09,47.16,104.71,23,66.72-7.34,213.32-31.71,331.12-8.73,42.17-16.27,78.59-19.11,101.61-10,81.38,21,219.46,21.27,220.84a15,15,0,0,1-11.32,18A15.17,15.17,0,0,1,765.65,1789.83Z"/>
    <path class="cls-8" d="M825.68,1768.83c-.43,0-.87,0-1.31-.06a15,15,0,0,1-13.65-16.24c.1-1.12,9.43-113.24-15.5-196.39-8.66-28.9-24.37-73.14-41-120C720,1339.73,681.17,1230.43,677.67,1184c-2.92-38.79,21-80.91,48.63-129.69,25.36-44.73,54.11-95.42,68.73-154.06C825,779.86,818,666,817.94,664.81a15,15,0,0,1,29.94-2c.32,4.83,7.39,119.77-23.74,244.61-15.61,62.62-45.43,115.2-71.74,161.6-25.25,44.51-47,83-44.81,112.64,3.19,42.47,42.95,154.45,74.9,244.42,16.76,47.2,32.59,91.79,41.47,121.4,26.59,88.73,17.07,202.8,16.65,207.61A15,15,0,0,1,825.68,1768.83Z"/>
    <path class="cls-8" d="M862.68,1702.83a15.28,15.28,0,0,1-3.47-.4c-38.08-9-70.65-27.84-96.8-55.92-21.51-23.11-38.8-52.63-51.37-87.75-20.14-56.3-24.37-115.33-24.37-154.93,0-20.55,9.63-62.22,23-119.9,25.36-109.73,60.09-260,43.38-338-25.83-120.5-56.9-356.74-57.21-359.11A15,15,0,0,1,725.54,583c.31,2.36,31.22,237.4,56.79,356.72,18.11,84.47-17.49,238.52-43.48,351-11.9,51.52-22.18,96-22.18,113.14,0,70.36,14.56,237.45,149.45,269.4a15,15,0,0,1-3.44,29.6Z"/>
    <path class="cls-9" d="M858,733.5s17.54,63.26,10.1,73.63-19.31,26.76-19.31,26.76,10.78,50.27,0,64.94-15.88-10.67-15.88-10.67S832,989,822,998.9a44.73,44.73,0,0,1-22.67,11.77s34,69.49,27.34,74.16S804,1071.5,804,1071.5s47.33,91.33,39.33,108.66S826,1189.5,826,1189.5s25.33,74.66,14,93.33-22,4.93-22,4.93,12,130.46,0,133.1-18.7-18.7-18.7-18.7,21.58,81.34,49.46,84-20.12,22-20.12,22,64,64.67,56.66,74-30.66-4.66-30.66-4.66,6,64,0,65.33-15.57-14.78-15.57-14.78-3.1,43.45-12.43,41.45-17.08-39.34-17.08-39.34L802,1661.5s8.67,26-6.67,21.33-29.33-48-29.33-48-11,26.67-18.17,27.33-4.5-59.33-4.5-59.33-6,30.67-20,24-10-62-10-62-8.62,12.66-21.29,9.32,1.25-103.24,0-103.33-8.67,3.78-20,4.22,14.67-76.89,14.67-76.89-10.39,2-17.53,1.34,34.86-102,32.86-102-13,30.15-28.83,25.41,19.76-69.21,19.76-69.21-10.93,5.8-20.26,7.8,5.26-74.59,5.26-74.59-5.26,23.92-17.26,21.92,26-94,26-94-11,9.33-22.16,2.67,43.49-74,43.49-74-41,18.66-43.49,14,44.16-72,44.16-72-10,12.81-26.67,13.4,12.13-62.39,12.13-62.39-23.78,25.65-29.62,28.32,2.82-86.67,2.82-86.67S658,897.5,648,897.5s38.67-102,38.67-102,9.33,44,8,48.69,21.7-24,21.7-24,23.63,56.64,16.3,60.64-17.34-2-17.34-2L720.67,930l20.22-46.3,25.39,23.57-1.51-61.13s5.9,42,21.23,38.69-27.69-77.7-27.69-77.7,50.36,34.37,52.36,33.7S844,729.5,844,729.5Z"/>
    <path class="cls-10" d="M828.67,1508.16s48-19.33,20.12-22-49.46-84-49.46-84,6.67,21.34,18.7,18.7,0-133.1,0-133.1,10.64,13.74,22-4.93-14-93.33-14-93.33,9.33,8,17.33-9.34S804,1071.5,804,1071.5s16,18,22.67,13.33-27.34-74.16-27.34-74.16A44.73,44.73,0,0,0,822,998.9c10-9.92,10.91-110.74,10.91-110.74s5.09,25.34,15.88,10.67,0-64.94,0-64.94,11.88-16.39,19.31-26.76S858,733.5,858,733.5l-14-4s-31.33,110.66-33.33,111.33-52.36-33.7-52.36-33.7,43,74.37,27.69,77.7-21.23-38.69-21.23-38.69l1.51,61.13L740.89,883.7s31.78,96.46,19.11,99.8-19.11-3.24-19.11-3.24,31,102.43,25.39,109.5S738,1083.5,738,1083.5s28.67,123.22,22.67,122.94-16-16.28-16-16.28S773.33,1294.83,758,1301.5s-28-21.34-28-21.34,5.33,119.34,12.67,132S764,1441.5,758,1443.5s-23.33,0-23.33,0,26.59,56.66,32.29,72-27.63,14.7-27.63,14.7,58,62.63,58,68-2.66,46.67-15.16,31.67a344.61,344.61,0,0,0-26.5-28s.33,28-12.34,1c0,0-2.66,60,4.5,59.33S766,1634.83,766,1634.83s14,43.33,29.33,48S802,1661.5,802,1661.5l7.59-31.34s7.74,37.34,17.08,39.34,12.43-41.45,12.43-41.45,9.57,16.11,15.57,14.78,0-65.33,0-65.33,23.33,14,30.66,4.66S828.67,1508.16,828.67,1508.16Z"/>
  </g>
  <g id="Calque_3" data-name="Calque 3">
    <path class="cls-10" d="M4046.67,676.16l86,44-74-103.92,11.48-15.41-74.68-15.24,33.18-14.26-186.61-10.57c16.38-4.58,46.61-29.43,46.61-29.43L3636.6,541l39.4-18.14-249.95,4,31.62-19-112,3.22c105.6-156.66,299-325,299-325-69.16,33.3-311.06,261.36-380.35,327.37l-13,.37C3345.28,235.48,3575.6,0,3575.6,0c-188.43,129.07-346.07,418.92-386.42,497.36l-11.28.28C3171.68,312.37,3314.58,15,3314.58,15c-163.64,206.16-186.28,426.81-189.41,483.92l-235.5,5.73,18-28-297.48,21.56,16-10.91-226.5,7.88,52-14.38-181,12-7-127-20,128.05-51-61.05,30,60.93-44-17.08-86,16.62h0l9-21.47-216,21.79h0l29-28.79L1668,495.35l-84-13.19-127.33,16.32,38-25-234,29.26-64.52-14.93-117.48,20.25,9-14.82L957.73,512.42c127.06-58.41,54.94-146.59,54.94-146.59,15,94-72,147.26-72,147.26,44-100.75-38-109.26-38-109.26,40,17,24,109.82,24,109.82l-68-13.49-90.74,20.59,21.4-27.49-137,33.68-.82,0,31.84-38.82L561.65,532.51l-43-46.68,17,48.42-118-41,28.91,47.48L213.67,466.83l94.07,86.25-76.57-20.25L243,560.18,90.64,532.83l50,41.69-99.94-5.69,36.17,18.69L38,584.83l8.29,12.08h0L10,575.5l11.5,40.74L0,626.16l26.47-1.23h0L14,658.83,47.4,636h0C28.8,670.48,58,697.5,58,697.5c-2-26,25.07-51,25.07-51h0L78,698.16l44.39-43.43,10.94,44.77,28-38.19,33.31,38.19,4.58-32.73,47.42,48.06,4.84-41.53L316,723.5l-9.31-44.21,66.64,45.54-16.18-40.66,43.52,24,72.54-14.39L462,732.83l106-32.45-14,59.78,98.11-54.63s-.78,53.3-.78,55.3,50.1-52.55,52-52.44-18,81.11-18,81.11l62.74-78.77,16.6,43.43L796,713.09l82,41.74,45.31-36.14L912.67,801.5,980,720.91v97.25l64.63-94.92,14,45.59,20.63-44.41,44,67.08,25.34-64.9L1208,804.16l10.73-75.55,80.6,101.55-15.95-99.88L1438,840.83l-55.31-108.29,106,19.62L1576,736l-13.35,41.55,141.32-40-20,66.64,143.33-61.33-35.33,66,100-51.33,69.33,50.66,46-64.66-20,116.65,68-98,.67,83.34,50.67-99.34,66.66,108.67-16-100.67L2244,816.83l-32-72.67,50,46.67,97.33-34.67L2364,771.5l35.33-11.34L2376,865.5l105.33-120-4,124L2538,750.83l38,72.67,35.33-80.67,99.34,98,2-94,94,94-24.5-99.5,79.5,62.5,154.5-64.62-121,126.12,243.5-132.5c-.5,18.5-47,97-47,97l156-101.5c-3.5,28-38.5,90.5-38.5,90.5L3360,715.5l64.67,69.33,28.66-74.67,28,146.67,37.34-152,52,54,46-50,27,51,14-59,22,108,26-117c8,102,39,154,39,154-5-26,58-152,58-152l47,85,43-96,53,19-3.55-44.31L4052,710.83Z"/>
    <path class="cls-8" d="M4046.67,764.25l86,44-74-103.93,11.48-15.4-74.68-15.25,14.18-48.51-175,73.09,12.66-20.67-130.66,41.34,6.25-39.34-133,32.5-16-38L3452,718.92l31.33-88.67-54,84.67-32.66-76.67L3416,727.58l-44.67-10.66-129.33,6,28.67-29.34-156,26,16-22.66-116.67,26v-116L2996.67,715.8,2964,628.25l17.33,94.67-76.66-15.34-46,4.67,12.66-12.67-168.66,7.34s20-10.67,22-12-178,7.37-178,7.37l12-10.71-135.37,28,50.47-17.29-180.47-7.37,24-18-162,25.37,59.34-89.59L2140,702.29l-22.67-98.71,3.34,98.71-73.34-16L1958,695.58l30-36-142,55.34,28.67-27.34-177.25,35.34,17.25-35.34-60,31.93,30-73.93s-65.34,72-68,73.34-85.34,0-85.34,0l79.34-46.67L1337.33,715.8l-34.66-13.51-108.67,12,39.33-53.33-123.33,48,28.67-35.34-124,40.67-78-19.33-136,12L845.33,658l-116,38.25-99.79-28.36L668,702.29s-114.67-21.37-117.33-22-122,12.58-122,12.58l-141-34.58-41,3-79.34-51.08-11.66,35L47.4,636,0,714.25,26.47,713,14,746.92l33.4-22.85C28.8,758.56,58,785.58,58,785.58c-2-26,25.07-51,25.07-51h0L78,786.25l44.39-43.43,10.94,44.76,28-38.19,33.31,38.19,4.58-32.72,47.42,48.06,4.84-41.53L316,811.58l-9.31-44.2,66.64,45.54-16.18-40.67,43.52,24,72.54-14.39L462,820.92l106-32.45-14,59.78,98.11-54.63s-.78,53.3-.78,55.3,50.1-52.55,52-52.45-18,81.11-18,81.11l62.74-78.77,16.6,43.44L796,801.17l82,41.75,45.31-36.14-10.64,82.8L980,809v97.25l64.63-94.92,14,45.59,20.63-44.42,44,67.08,25.34-64.89L1208,892.25l10.73-75.56,80.6,101.56-15.95-99.88L1438,928.92l-55.31-108.29,106,19.62L1576,824l-13.35,41.55,141.32-40-20,66.65,143.33-61.33-35.33,66,100-51.34,69.33,50.67,46-64.67-20,116.66,68-98,.67,83.33,50.67-99.33,66.66,108.67-16-100.67L2244,904.92l-32-72.67,50,46.67,97.33-34.67,4.67,15.33,35.33-11.33L2376,953.58l105.33-120-4,124L2538,838.92l38,72.66,35.33-80.66,99.34,98,2-94,94,94-24.5-99.5,79.5,62.5,154.5-64.62-121,126.12,243.5-132.5c-.5,18.5-47,97-47,97l156-101.5c-3.5,28-38.5,90.5-38.5,90.5L3360,803.58l64.67,69.34,28.66-74.67,28,146.67,37.34-152,52,54,46-50,27,51,14-59,22,108,26-117c8,102,39,154,39,154-5-26,58-152,58-152l47,85,43-96,53,19-3.55-44.31L4052,798.92Z"/>
    <polygon class="cls-11" points="36 671.83 6.67 686.5 47.4 635.99 68.33 668.5 36 671.83"/>
  </g>
</svg>
